<svg width="291" height="107" viewBox="0 0 291 107" fill="none" xmlns="http://www.w3.org/2000/svg">
<g filter="url(#filter0_d_1_7)">
<rect width="282" height="97" rx="12" fill="white"/>
<path d="M27.5239 66.112C29.3479 66.112 30.9079 65.656 32.2039 64.744C33.5479 63.784 34.5079 62.512 35.0839 60.928C35.2279 60.496 35.5159 60.328 35.9479 60.424L39.2599 61.072C39.4999 61.12 39.6439 61.24 39.6919 61.432C39.7879 61.576 39.8119 61.744 39.7639 61.936C38.9479 64.624 37.4599 66.736 35.2999 68.272C33.1399 69.808 30.5239 70.576 27.4519 70.576C23.9479 70.576 21.0919 69.664 18.8839 67.84C16.6759 65.968 15.3079 63.448 14.7799 60.28C14.5879 59.08 14.4679 57.664 14.4199 56.032C14.3719 54.4 14.3479 53.056 14.3479 52C14.3479 50.896 14.3479 50.128 14.3479 49.696C14.3479 47.248 14.4439 45.256 14.6359 43.72C15.0199 40.504 16.3399 37.912 18.5959 35.944C20.8999 33.976 23.7799 32.992 27.2359 32.992C30.9319 32.992 33.9319 34.048 36.2359 36.16C38.5399 38.272 39.8359 41.056 40.1239 44.512C40.2679 46.096 40.3399 49 40.3399 53.224C40.3399 53.704 40.0999 53.944 39.6199 53.944H19.7479C19.5559 53.944 19.4599 54.04 19.4599 54.232C19.4599 55.72 19.5079 57.376 19.6039 59.2C19.8439 61.264 20.6599 62.944 22.0519 64.24C23.4919 65.488 25.3159 66.112 27.5239 66.112ZM27.3079 37.456C25.1479 37.456 23.3719 38.104 21.9799 39.4C20.6359 40.648 19.8439 42.304 19.6039 44.368C19.5079 46.384 19.4599 48.064 19.4599 49.408C19.4599 49.6 19.5559 49.696 19.7479 49.696H34.9399C35.1319 49.696 35.2279 49.6 35.2279 49.408C35.2279 48.016 35.1319 46.36 34.9399 44.44C34.6999 42.376 33.8839 40.696 32.4919 39.4C31.1479 38.104 29.4199 37.456 27.3079 37.456ZM59.3383 70.36C55.6423 70.36 52.6663 69.472 50.4103 67.696C48.1543 65.92 47.0263 63.64 47.0263 60.856V60.208C47.0263 59.728 47.2663 59.488 47.7463 59.488H51.2743C51.7543 59.488 51.9943 59.728 51.9943 60.208V60.712C51.9943 62.248 52.6663 63.592 54.0103 64.744C55.4023 65.848 57.1783 66.4 59.3383 66.4C61.4503 66.4 63.1543 65.848 64.4503 64.744C65.7463 63.64 66.3943 62.248 66.3943 60.568C66.3943 59.368 66.0343 58.36 65.3143 57.544C64.5943 56.728 63.7063 56.08 62.6503 55.6C61.5943 55.12 60.1303 54.568 58.2583 53.944C56.0023 53.176 54.1303 52.408 52.6423 51.64C51.1543 50.872 49.8823 49.816 48.8263 48.472C47.8183 47.08 47.3143 45.328 47.3143 43.216C47.3143 40.144 48.3943 37.72 50.5543 35.944C52.7143 34.12 55.5703 33.208 59.1223 33.208C62.7703 33.208 65.6743 34.144 67.8343 36.016C70.0423 37.888 71.1463 40.288 71.1463 43.216V43.36C71.1463 43.84 70.9063 44.08 70.4263 44.08H67.1143C66.6343 44.08 66.3943 43.84 66.3943 43.36V43.072C66.3943 41.44 65.7223 40.096 64.3783 39.04C63.0823 37.936 61.3303 37.384 59.1223 37.384C57.0583 37.384 55.3783 37.912 54.0823 38.968C52.8343 39.976 52.2103 41.296 52.2103 42.928C52.2103 44.608 52.8343 45.88 54.0823 46.744C55.3783 47.608 57.3943 48.52 60.1303 49.48C62.4823 50.248 64.4263 51.016 65.9623 51.784C67.4983 52.552 68.7943 53.632 69.8503 55.024C70.9543 56.368 71.5063 58.12 71.5063 60.28C71.5063 63.352 70.4023 65.8 68.1943 67.624C65.9863 69.448 63.0343 70.36 59.3383 70.36ZM94.0232 36.88C94.0232 37.36 93.7832 37.6 93.3032 37.6H86.4632C86.2712 37.6 86.1752 37.696 86.1752 37.888V59.488C86.1752 61.744 86.6072 63.328 87.4712 64.24C88.3832 65.104 89.8232 65.536 91.7912 65.536H93.0152C93.4952 65.536 93.7352 65.776 93.7352 66.256V69.28C93.7352 69.76 93.4952 70 93.0152 70L90.7832 70.072C87.6632 70.072 85.2872 69.448 83.6552 68.2C82.0232 66.904 81.2072 64.528 81.2072 61.072V37.888C81.2072 37.696 81.1112 37.6 80.9192 37.6H77.3192C76.8392 37.6 76.5992 37.36 76.5992 36.88V34.288C76.5992 33.808 76.8392 33.568 77.3192 33.568H80.9192C81.1112 33.568 81.2072 33.472 81.2072 33.28V25.072C81.2072 24.592 81.4472 24.352 81.9272 24.352H85.4552C85.9352 24.352 86.1752 24.592 86.1752 25.072V33.28C86.1752 33.472 86.2712 33.568 86.4632 33.568H93.3032C93.7832 33.568 94.0232 33.808 94.0232 34.288V36.88ZM113.938 66.112C115.762 66.112 117.322 65.656 118.618 64.744C119.962 63.784 120.922 62.512 121.498 60.928C121.642 60.496 121.93 60.328 122.362 60.424L125.674 61.072C125.914 61.12 126.058 61.24 126.106 61.432C126.202 61.576 126.226 61.744 126.178 61.936C125.362 64.624 123.874 66.736 121.714 68.272C119.554 69.808 116.938 70.576 113.866 70.576C110.362 70.576 107.506 69.664 105.298 67.84C103.09 65.968 101.722 63.448 101.194 60.28C101.002 59.08 100.882 57.664 100.834 56.032C100.786 54.4 100.762 53.056 100.762 52C100.762 50.896 100.762 50.128 100.762 49.696C100.762 47.248 100.858 45.256 101.05 43.72C101.434 40.504 102.754 37.912 105.01 35.944C107.314 33.976 110.194 32.992 113.65 32.992C117.346 32.992 120.346 34.048 122.65 36.16C124.954 38.272 126.25 41.056 126.538 44.512C126.682 46.096 126.754 49 126.754 53.224C126.754 53.704 126.514 53.944 126.034 53.944H106.162C105.97 53.944 105.874 54.04 105.874 54.232C105.874 55.72 105.922 57.376 106.018 59.2C106.258 61.264 107.074 62.944 108.466 64.24C109.906 65.488 111.73 66.112 113.938 66.112ZM113.722 37.456C111.562 37.456 109.786 38.104 108.394 39.4C107.05 40.648 106.258 42.304 106.018 44.368C105.922 46.384 105.874 48.064 105.874 49.408C105.874 49.6 105.97 49.696 106.162 49.696H121.354C121.546 49.696 121.642 49.6 121.642 49.408C121.642 48.016 121.546 46.36 121.354 44.44C121.114 42.376 120.298 40.696 118.906 39.4C117.562 38.104 115.834 37.456 113.722 37.456ZM141.509 70C141.077 70 140.813 69.784 140.717 69.352L131.861 34.36L131.789 34.072C131.789 33.736 132.005 33.568 132.437 33.568H136.037C136.469 33.568 136.733 33.784 136.829 34.216L143.309 61.864C143.357 62.008 143.405 62.08 143.453 62.08C143.501 62.08 143.549 62.008 143.597 61.864L150.149 34.216C150.245 33.784 150.509 33.568 150.941 33.568H154.253C154.733 33.568 154.997 33.784 155.045 34.216L161.741 61.792C161.789 61.936 161.837 62.008 161.885 62.008C161.933 62.008 161.981 61.936 162.029 61.792L168.581 34.216C168.677 33.784 168.941 33.568 169.373 33.568L173.045 33.64C173.285 33.64 173.453 33.712 173.549 33.856C173.693 34 173.717 34.192 173.621 34.432L164.621 69.352C164.573 69.784 164.309 70 163.829 70H160.085C159.653 70 159.389 69.784 159.293 69.352L152.741 42.712C152.693 42.568 152.621 42.496 152.525 42.496C152.477 42.496 152.429 42.568 152.381 42.712L146.045 69.352C145.949 69.784 145.685 70 145.253 70H141.509ZM206 43.576C206.48 46.024 206.72 48.88 206.72 52.144C206.72 55.072 206.408 57.856 205.784 60.496C204.92 64 203.576 66.568 201.752 68.2C199.976 69.784 197.576 70.576 194.552 70.576C190.76 70.576 188 69.208 186.271 66.472C186.224 66.328 186.152 66.28 186.056 66.328C185.96 66.328 185.912 66.4 185.912 66.544V69.28C185.912 69.76 185.672 70 185.191 70H181.52C181.04 70 180.8 69.76 180.8 69.28V20.32C180.8 19.84 181.04 19.6 181.52 19.6H185.191C185.672 19.6 185.912 19.84 185.912 20.32V37.024C185.912 37.168 185.96 37.264 186.056 37.312C186.152 37.312 186.224 37.24 186.271 37.096C186.992 35.752 187.976 34.744 189.224 34.072C190.52 33.4 192.176 33.064 194.191 33.064C197.408 33.064 199.976 33.928 201.896 35.656C203.864 37.336 205.232 39.976 206 43.576ZM200.456 60.784C201.176 58.624 201.536 55.624 201.536 51.784C201.536 47.896 201.08 44.752 200.168 42.352C198.824 39.088 196.568 37.456 193.4 37.456C191.768 37.456 190.472 37.888 189.512 38.752C188.552 39.616 187.784 40.864 187.208 42.496C186.392 44.704 185.984 47.8 185.984 51.784C185.984 55.672 186.344 58.696 187.064 60.856C187.64 62.584 188.432 63.904 189.44 64.816C190.496 65.728 191.864 66.184 193.544 66.184C195.32 66.184 196.76 65.728 197.864 64.816C198.968 63.904 199.832 62.56 200.456 60.784ZM227.561 70.576C224.057 70.576 221.177 69.64 218.921 67.768C216.665 65.848 215.297 63.28 214.817 60.064C214.529 57.664 214.385 54.88 214.385 51.712C214.385 48.544 214.529 45.808 214.817 43.504C215.249 40.336 216.593 37.792 218.849 35.872C221.153 33.952 224.057 32.992 227.561 32.992C231.065 32.992 233.945 33.952 236.201 35.872C238.505 37.792 239.873 40.336 240.305 43.504C240.593 45.424 240.737 48.16 240.737 51.712C240.737 55.36 240.593 58.144 240.305 60.064C239.873 63.28 238.505 65.848 236.201 67.768C233.945 69.64 231.065 70.576 227.561 70.576ZM227.561 66.112C229.625 66.112 231.353 65.488 232.745 64.24C234.185 62.944 235.049 61.24 235.337 59.128C235.529 57.352 235.625 54.904 235.625 51.784C235.625 48.616 235.529 46.168 235.337 44.44C235.097 42.328 234.257 40.648 232.817 39.4C231.425 38.104 229.673 37.456 227.561 37.456C225.449 37.456 223.697 38.104 222.305 39.4C220.913 40.648 220.073 42.328 219.785 44.44C219.593 46.168 219.497 48.616 219.497 51.784C219.497 54.952 219.593 57.4 219.785 59.128C220.025 61.24 220.841 62.944 222.233 64.24C223.673 65.488 225.449 66.112 227.561 66.112ZM246.548 70C246.26 70 246.068 69.928 245.972 69.784C245.876 69.592 245.9 69.376 246.044 69.136L256.412 52C256.508 51.856 256.508 51.712 256.412 51.568L246.044 34.432C245.948 34.24 245.9 34.096 245.9 34C245.9 33.712 246.116 33.568 246.548 33.568H250.58C250.916 33.568 251.204 33.736 251.444 34.072L259.292 47.248C259.34 47.296 259.412 47.32 259.508 47.32C259.604 47.32 259.676 47.296 259.724 47.248L267.5 34.072C267.74 33.736 268.028 33.568 268.364 33.568H272.468C272.756 33.568 272.948 33.664 273.044 33.856C273.14 34 273.116 34.192 272.972 34.432L262.604 51.568C262.556 51.712 262.556 51.856 262.604 52L272.972 69.136C273.068 69.328 273.116 69.472 273.116 69.568C273.116 69.856 272.9 70 272.468 70H268.508C268.172 70 267.884 69.832 267.644 69.496L259.796 56.248C259.748 56.152 259.676 56.104 259.58 56.104C259.484 56.104 259.412 56.152 259.364 56.248L251.516 69.496C251.276 69.832 250.988 70 250.652 70H246.548Z" fill="black"/>
</g>
<defs>
<filter id="filter0_d_1_7" x="0" y="0" width="291" height="107" filterUnits="userSpaceOnUse" color-interpolation-filters="sRGB">
<feFlood flood-opacity="0" result="BackgroundImageFix"/>
<feColorMatrix in="SourceAlpha" type="matrix" values="0 0 0 0 0 0 0 0 0 0 0 0 0 0 0 0 0 0 127 0" result="hardAlpha"/>
<feOffset dx="5" dy="6"/>
<feGaussianBlur stdDeviation="2"/>
<feComposite in2="hardAlpha" operator="out"/>
<feColorMatrix type="matrix" values="0 0 0 0 0 0 0 0 0 0 0 0 0 0 0 0 0 0 0.6 0"/>
<feBlend mode="normal" in2="BackgroundImageFix" result="effect1_dropShadow_1_7"/>
<feBlend mode="normal" in="SourceGraphic" in2="effect1_dropShadow_1_7" result="shape"/>
</filter>
</defs>
</svg>
